# xmcd
#
# Track frame offsets: 
#        182
#        23480
#        46185
#        73947
#        87872
#        112815
#        131590
#        149067
#        160810
#        177405
#
# Disc length: 2601 seconds
#
# Revision: 5
# Processed by: cddbd v1.5.1PL2 Copyright (c) Steve Scherf et al.
# Submitted via: ExactAudioCopy v0.95b3
#
DISCID=840a270a
DTITLE=Albert Collins - Iceman
DYEAR=1991
DGENRE=Blues
TTITLE0=Mr. Collins, Mr. Collins
TTITLE1=Iceman
TTITLE2=Don't Mistake Kindness for Weakness
TTITLE3=Travelin' South
TTITLE4=Put the Shoe on the Other Foot
TTITLE5=I'm Beginning to Wonder
TTITLE6=Head Rag
TTITLE7=The Hawk
TTITLE8=Blues for Gabe
TTITLE9=Mr. Collins, Mr. Collins (Faded Version)
EXTD=more info\nMillenniumMusicProjectFormat, syntax as follows:\nTitl
EXTD=e{Subtitle}[info](Lyricist;Composer;Date,Artist,Location)[info]\n
EXTD=corrections to: windking3@yahoo.com
EXTT0=
EXTT1=
EXTT2=
EXTT3=
EXTT4=
EXTT5=
EXTT6=
EXTT7=
EXTT8=
EXTT9=
PLAYORDER=
